<svg width="960" height="540" viewBox="0 0 960 540" fill="none" xmlns="http://www.w3.org/2000/svg">
<path fill-rule="evenodd" clip-rule="evenodd" d="M960 0H0V540H960V0ZM184.419 39.7335C185.145 37.4812 185.622 36.0012 186.414 32.0808C187.844 25.0026 201.738 21.8742 204.529 22.0039H881.131C881.738 22.1165 882.755 22.2282 884.096 22.3754C894.614 23.5305 925.044 26.8724 933.5 50C943.033 76.0752 932.76 515 932.76 515H27V98C27.865 75.9221 35.0198 71.2955 54.5 70.8384H154.712C173.733 70.8384 179.189 58.436 181.885 48.359C183.087 43.8632 183.834 41.5478 184.419 39.7335Z" fill="#151A20"/>
</svg>
